<?xml version="1.0" encoding="utf-8"?>
<!-- Generator: Adobe Illustrator 16.0.0, SVG Export Plug-In . SVG Version: 6.00 Build 0)  -->
<!DOCTYPE svg PUBLIC "-//W3C//DTD SVG 1.1//EN" "http://www.w3.org/Graphics/SVG/1.1/DTD/svg11.dtd">
<svg version="1.1" id="Layer_1" xmlns="http://www.w3.org/2000/svg" xmlns:xlink="http://www.w3.org/1999/xlink" x="0px" y="0px"
	 width="444.873px" height="144px" viewBox="0 0 444.873 144" enable-background="new 0 0 444.873 144" xml:space="preserve">
<g opacity="0.5">
	<g>
		<path d="M161.921,12.576c0-2.7,0.18-4.14,3.06-4.68c1.26-0.18,6.84-0.54,6.84,2.7v112.675c0,3.239,1.44,3.778,3.24,3.778h27.179
			c2.34,0,2.699,9.9,0.18,9.9c-2.34,0-37.258,0.18-37.438,0c-2.88-0.36-3.06-1.979-3.06-4.859L161.921,12.576L161.921,12.576z"/>
		<path d="M213.219,12.036c0-3.06,0.54-5.22,3.959-5.22c3.42,0,5.94,1.26,5.94,3.6v123.475c0,1.98-3.96,2.521-6.479,2.521
			c-2.7,0-3.42-0.898-3.42-3.42V12.036z"/>
		<path d="M273.876,125.611c-3.6,7.199-10.979,11.879-19.079,11.879c-4.858,0-6.12,0-7.2-0.359
			c-7.918-1.26-13.859-7.199-15.479-14.939c-0.54,0.541,1.619-2.698,3.6-3.239c2.34-0.899,4.5-0.539,4.5-0.539l0.18,0.18
			c0.9,6.841,6.121,8.459,8.461,8.82c4.68,0.899,12.779,0,15.479-5.58c3.6-7.2,3.061-17.819,1.801-25.92
			c-2.341-14.579-11.16-27.178-18.9-37.258c-0.719-0.72-1.439-1.8-2.34-2.7c-5.219-6.839-11.16-14.219-11.16-24.299
			c0-13.859,9.721-23.579,22.681-23.579c8.819,0,17.459,5.94,20.339,14.939l0.18,1.26c-1.979,1.62-5.039,3.42-7.738,3.78
			c-1.26-0.9-1.26-0.9-1.62-1.8c-1.8-5.399-5.761-8.64-11.159-8.64c-8.279,0-12.42,4.86-12.42,14.04c0,7.2,6.479,15.12,11.34,21.239
			c10.801,13.859,18.18,24.839,20.879,41.578C276.937,98.973,279.274,114.271,273.876,125.611z"/>
		<path d="M300.696,19.236c0,0,0-1.98-1.619-1.98h-13.859c-2.521,0-6.119-0.72-6.119-3.42s3.239-5.94,5.219-5.94h44.1
			c2.52,0,3.779,2.16,3.779,5.22c0,3.419-2.34,4.32-5.399,4.32h-12.6c-1.979,0-3.24,0.9-3.601,2.52v114.655
			c0,1.979-3.239,2.88-5.939,2.88c-2.52,0-3.779-1.261-3.959-3.779V19.236H300.696z"/>
		<path d="M341.195,13.116c0-2.88,0.54-4.32,3.06-5.04h0.9c0,0,37.799,0,40.498,0c2.34,0-1.08,10.439-3.42,10.439h-27.72
			c-1.62,0-3.06,0.72-3.06,3.78v31.319c0,1.8,0.18,3.24,2.88,3.24h17.279c5.22,0,1.438,10.8-1.44,10.8h-15.659
			c-1.438,0-3.06,0.36-3.06,2.52v52.559c0,3.06,1.438,3.779,3.06,3.779h27.539c2.34,0,5.58,10.26,3.061,10.26h-39.238
			c-0.18,0-0.18,0-0.359,0h-0.359c-0.181,0-0.721,0-0.9,0c-2.52-0.541-3.06-1.979-3.06-4.859L341.195,13.116L341.195,13.116z"/>
		<path d="M444.873,133.891c0,0-0.36,2.881-4.14,3.24c-3.602,0.54-6.66-2.52-6.66-2.52s-18.539-56.879-20.521-62.638
			c-0.54-1.44-1.26-2.16-2.34-2.16h-3.42c-1.26,0-2.52,0.54-2.52,2.16v61.917c0,1.979-3.961,3.42-5.94,3.42
			c-2.159,0-3.959,0.541-3.959-3.779V12.396c0-3.24,0.359-4.86,4.68-4.86c3.061,0,13.499-0.18,21.239,0.72
			c24.659,2.52,22.679,24.299,22.859,31.499c0,0,1.26,24.299-20.7,29.339L444.873,133.891z M405.274,55.594
			c0,1.8,0.358,3.24,3.06,3.24s7.74,0.18,9.72,0c16.561-0.9,16.92-13.679,16.739-19.979c0-7.56-0.18-18.899-15.659-20.519
			c-4.859-0.54-9.54-0.36-10.62-0.36c-1.619,0-3.238,0.72-3.238,3.78L405.274,55.594L405.274,55.594z"/>
	</g>
	<g>
		<path d="M0,134c0,5.521,4.477,10,10,10h120c5.523,0,10-4.479,10-10V14c0-5.523-4.477-10-10-10H10C4.477,4,0,8.477,0,14V134z"/>
	</g>
</g>
<g>
	<path fill="#FFFFFF" d="M161.921,8.576c0-2.7,0.18-4.14,3.06-4.68c1.26-0.18,6.84-0.54,6.84,2.7v112.675
		c0,3.239,1.44,3.778,3.24,3.778h27.179c2.34,0,2.699,9.9,0.18,9.9c-2.34,0-37.258,0.18-37.438,0c-2.88-0.36-3.06-1.979-3.06-4.859
		L161.921,8.576L161.921,8.576z"/>
	<path fill="#FFFFFF" d="M213.219,8.036c0-3.06,0.54-5.22,3.959-5.22c3.42,0,5.94,1.26,5.94,3.6v123.475
		c0,1.98-3.96,2.521-6.479,2.521c-2.7,0-3.42-0.898-3.42-3.42V8.036z"/>
	<path fill="#FFFFFF" d="M273.876,121.611c-3.6,7.199-10.979,11.879-19.079,11.879c-4.858,0-6.12,0-7.2-0.359
		c-7.918-1.26-13.859-7.199-15.479-14.939c-0.54,0.541,1.619-2.698,3.6-3.239c2.34-0.899,4.5-0.539,4.5-0.539l0.18,0.18
		c0.9,6.841,6.121,8.459,8.461,8.82c4.68,0.899,12.779,0,15.479-5.58c3.6-7.2,3.061-17.819,1.801-25.92
		c-2.341-14.579-11.16-27.178-18.9-37.258c-0.719-0.72-1.439-1.8-2.34-2.7c-5.219-6.839-11.16-14.219-11.16-24.299
		c0-13.859,9.721-23.579,22.681-23.579c8.819,0,17.459,5.94,20.339,14.939l0.18,1.26c-1.979,1.62-5.039,3.42-7.738,3.78
		c-1.26-0.9-1.26-0.9-1.62-1.8c-1.8-5.399-5.761-8.64-11.159-8.64c-8.279,0-12.42,4.86-12.42,14.04c0,7.2,6.479,15.12,11.34,21.239
		c10.801,13.859,18.18,24.839,20.879,41.578C276.937,94.973,279.274,110.271,273.876,121.611z"/>
	<path fill="#FFFFFF" d="M300.696,15.236c0,0,0-1.98-1.619-1.98h-13.859c-2.521,0-6.119-0.72-6.119-3.42s3.239-5.94,5.219-5.94h44.1
		c2.52,0,3.779,2.16,3.779,5.22c0,3.419-2.34,4.32-5.399,4.32h-12.6c-1.979,0-3.24,0.9-3.601,2.52v114.655
		c0,1.979-3.239,2.88-5.939,2.88c-2.52,0-3.779-1.261-3.959-3.779V15.236H300.696z"/>
	<path fill="#FFFFFF" d="M341.195,9.116c0-2.88,0.54-4.32,3.06-5.04h0.9c0,0,37.799,0,40.498,0c2.34,0-1.08,10.439-3.42,10.439
		h-27.72c-1.62,0-3.06,0.72-3.06,3.78v31.319c0,1.8,0.18,3.24,2.88,3.24h17.279c5.22,0,1.438,10.8-1.44,10.8h-15.659
		c-1.438,0-3.06,0.36-3.06,2.52v52.559c0,3.06,1.438,3.779,3.06,3.779h27.539c2.34,0,5.58,10.26,3.061,10.26h-39.238
		c-0.18,0-0.18,0-0.359,0h-0.359c-0.181,0-0.721,0-0.9,0c-2.52-0.541-3.06-1.979-3.06-4.859L341.195,9.116L341.195,9.116z"/>
	<path fill="#FFFFFF" d="M444.873,129.891c0,0-0.36,2.881-4.14,3.24c-3.602,0.54-6.66-2.52-6.66-2.52s-18.539-56.879-20.521-62.638
		c-0.54-1.44-1.26-2.16-2.34-2.16h-3.42c-1.26,0-2.52,0.54-2.52,2.16v61.917c0,1.979-3.961,3.42-5.94,3.42
		c-2.159,0-3.959,0.541-3.959-3.779V8.396c0-3.24,0.359-4.86,4.68-4.86c3.061,0,13.499-0.18,21.239,0.72
		c24.659,2.52,22.679,24.299,22.859,31.499c0,0,1.26,24.299-20.7,29.339L444.873,129.891z M405.274,51.594
		c0,1.8,0.358,3.24,3.06,3.24s7.74,0.18,9.72,0c16.561-0.9,16.92-13.679,16.739-19.979c0-7.56-0.18-18.899-15.659-20.519
		c-4.859-0.54-9.54-0.36-10.62-0.36c-1.619,0-3.238,0.72-3.238,3.78L405.274,51.594L405.274,51.594z"/>
</g>
<g>
	<path fill="#FFFFFF" d="M0,130c0,5.521,4.477,10,10,10h120c5.523,0,10-4.479,10-10V10c0-5.523-4.477-10-10-10H10
		C4.477,0,0,4.477,0,10V130z"/>
</g>
<rect x="38" y="36" opacity="0.6" enable-background="new    " width="85" height="24"/>
<rect x="38" y="68" opacity="0.4" fill="#643278" enable-background="new    " width="85" height="24"/>
<rect x="38" y="98" opacity="0.2" enable-background="new    " width="85" height="24"/>
</svg>
